<svg width="73" height="68" viewBox="0 0 73 68" fill="none" xmlns="http://www.w3.org/2000/svg">
<path d="M0.488937 1.27273H7.16578L12.3938 11.62H12.6111L17.8391 1.27273H24.5159L15.4726 17.7415V26H9.53226V17.7415L0.488937 1.27273ZM72.5331 13.6364C72.5331 16.357 72.0099 18.6631 70.9635 20.5547C69.9171 22.4463 68.5004 23.883 66.7135 24.8651C64.9346 25.8471 62.9384 26.3381 60.7248 26.3381C58.5032 26.3381 56.503 25.843 54.7241 24.853C52.9452 23.8629 51.5326 22.4261 50.4862 20.5426C49.4478 18.651 48.9287 16.349 48.9287 13.6364C48.9287 10.9157 49.4478 8.60961 50.4862 6.71804C51.5326 4.82647 52.9452 3.38968 54.7241 2.40767C56.503 1.42566 58.5032 0.934658 60.7248 0.934658C62.9384 0.934658 64.9346 1.42566 66.7135 2.40767C68.5004 3.38968 69.9171 4.82647 70.9635 6.71804C72.0099 8.60961 72.5331 10.9157 72.5331 13.6364ZM66.4237 13.6364C66.4237 12.0265 66.1943 10.6662 65.7355 9.5554C65.2847 8.4446 64.6327 7.60346 63.7795 7.03196C62.9344 6.46046 61.9161 6.17471 60.7248 6.17471C59.5416 6.17471 58.5234 6.46046 57.6702 7.03196C56.8169 7.60346 56.1609 8.4446 55.7021 9.5554C55.2514 10.6662 55.026 12.0265 55.026 13.6364C55.026 15.2462 55.2514 16.6065 55.7021 17.7173C56.1609 18.8281 56.8169 19.6693 57.6702 20.2408C58.5234 20.8123 59.5416 21.098 60.7248 21.098C61.9161 21.098 62.9344 20.8123 63.7795 20.2408C64.6327 19.6693 65.2847 18.8281 65.7355 17.7173C66.1943 16.6065 66.4237 15.2462 66.4237 13.6364ZM17.0452 42.2727H23.0097V58.2223C23.0097 60.0656 22.571 61.6714 21.6937 63.0398C20.8163 64.4001 19.5928 65.4545 18.0232 66.2031C16.4536 66.9437 14.6304 67.3139 12.5537 67.3139C10.4529 67.3139 8.61767 66.9437 7.04806 66.2031C5.47846 65.4545 4.259 64.4001 3.38968 63.0398C2.52036 61.6714 2.08571 60.0656 2.08571 58.2223V42.2727H8.06227V57.7031C8.06227 58.5563 8.2474 59.317 8.61767 59.9851C8.99598 60.6532 9.52321 61.1764 10.1993 61.5547C10.8755 61.933 11.6603 62.1222 12.5537 62.1222C13.4472 62.1222 14.228 61.933 14.8961 61.5547C15.5722 61.1764 16.0994 60.6532 16.4778 59.9851C16.8561 59.317 17.0452 58.5563 17.0452 57.7031V42.2727ZM56.6046 42.2727L61.1203 50.0845H61.3134L65.8774 42.2727H72.5663L65.1046 54.6364L72.8078 67H65.9498L61.3134 59.1037H61.1203L56.4839 67H49.6742L57.3411 54.6364L49.8674 42.2727H56.6046Z" fill="black"/>
</svg>
